# xmcd
#
# Track frame offsets: 
#        150
#        8160
#        14195
#        24182
#        36582
#        47521
#        56312
#        67288
#        78528
#        84712
#        96877
#        109150
#        122924
#        134596
#        147380
#        159062
#        167363
#        176718
#        187449
#        200317
#        210877
#        223148
#        237385
#        243472
#        254554
#        263767
#        274861
#        285647
#        300991
#        314026
#        327660
#
# Disc length: 4429 seconds
#
# Revision: 0
# Processed by: cddbd v1.5.1PL0 Copyright (c) Steve Scherf et al.
# Submitted via: ExactAudioCopy v0.95a4
#
DISCID=d7114b1f
DTITLE=Various Artist - Boppin' Acetates Coast To Coast
DYEAR=1900
DGENRE=Country
TTITLE0=Bobby Watkins - I Just Want Your Love
TTITLE1=Curly Fagan and The Watkins Bros - Black Mountain Rag
TTITLE2=Eddie Moore - Sleeping In The Cellar
TTITLE3=Carl Petz and The Drifting Cowboys - Looking For A Date Tonight
TTITLE4=Carl Petz and The Drifting Cowboys - Wha'cha Gonna' Do Now
TTITLE5=Burton Harris and Billy Smith - Mixed Boogie
TTITLE6=Jimmy Seaton and Burton Harris - Honky Tonkin' Daddy
TTITLE7=Mickey Evans and Rusty Keefer's Tumbleweeds - Ding Dong Polka
TTITLE8=Ellis Stroud - My Hadacol Gal
TTITLE9=Sonny Boy Miller - Gentleman's Swing
TTITLE10=Sonny Boy Miller - Wonder If The Sun Will Shine
TTITLE11=Mickey Evans and Rusty Keefer's Tumbleweeds - Blue Love In My H
TTITLE11=eart
TTITLE12=Bill Callahan and His Blue Mountain Boys - Curley Headed Baby
TTITLE13=Ed Jordan's Tennessee Farmers - You'd Be Surprised (How My Ba
TTITLE13=by Loves Her Man)
TTITLE14=Ed Jordan's Tennessee Farmers - Goin' Down The Road Feeling B
TTITLE14=ad
TTITLE15=Burton Harris and Hugh Blair - Tearin' Up The Highway
TTITLE16=Eugene Drozd - Why Couldn't It Be
TTITLE17=Don Owens and The Western Cowboys - Are You Teasing Me?
TTITLE18=Frank Marshall - Louisiana Shuffle
TTITLE19=Frank Marshall - Rovin' Eyes
TTITLE20=The Ritchey Brothers and The Red Arrow Boys - Red Arrow Train
TTITLE21=Red Belcher With Sunflower and The Kentucky Ridge Runners - Pis
TTITLE21=tol Packin' Mama
TTITLE22=Pee Wee Miller and The Bunkhouse Boys - Poison Ivy
TTITLE23=Ray  Whitley - Who Do I Cry Over You?
TTITLE24=Burton Harris and His Guitar - Big Beaver
TTITLE25=Unknown Artist and Band - Dixie Boogie Rhythm
TTITLE26=Roy Kelley and His Westernaires - Rosie, Rosie
TTITLE27=Bill Taylor and His Arizona Cowboys  (Voc. Lucky White)/ Sugar 
TTITLE27=Moon
TTITLE28=Bill Taylor and His Arizona Cowboys  (Voc. Bill Taylor and Band)/
TTITLE28=Smoke, Smoke, Smoke (That Cigarette)
TTITLE29=Bill Taylor and His Arizona Cowboys  (Voc. Daisy May)/ Somebody
TTITLE29='s Rose
TTITLE30=Ellis Stroud - I Just Couldn't Find The Door
EXTD=
EXTT0=
EXTT1=
EXTT2=
EXTT3=
EXTT4=
EXTT5=
EXTT6=
EXTT7=
EXTT8=
EXTT9=
EXTT10=
EXTT11=
EXTT12=
EXTT13=
EXTT14=
EXTT15=
EXTT16=
EXTT17=
EXTT18=
EXTT19=
EXTT20=
EXTT21=
EXTT22=
EXTT23=
EXTT24=
EXTT25=
EXTT26=
EXTT27=
EXTT28=
EXTT29=
EXTT30=
PLAYORDER=
